<svg xmlns="http://www.w3.org/2000/svg" xmlns:xlink="http://www.w3.org/1999/xlink" width="500" zoomAndPan="magnify" viewBox="0 0 375 374.999991" height="500" preserveAspectRatio="xMidYMid meet" version="1.0"><defs><clipPath id="03d9fe4a64"><path d="M 5.539062 172.234375 L 44.527344 172.234375 L 44.527344 201.636719 L 5.539062 201.636719 Z M 5.539062 172.234375 " clip-rule="nonzero"/></clipPath><clipPath id="7e87051f34"><path d="M 13.902344 172.308594 L 36.222656 172.308594 L 44.496094 180.582031 L 44.496094 201.496094 L 36.222656 201.496094 L 36.222656 182.765625 C 36.222656 182.15625 36.007812 181.652344 35.578125 181.222656 L 34.632812 180.582031 L 16.085938 180.582031 C 15.488281 180.582031 14.96875 180.796875 14.542969 181.222656 L 13.902344 182.167969 L 13.902344 201.496094 L 5.628906 201.496094 L 5.628906 180.582031 Z M 13.902344 172.308594 " clip-rule="nonzero"/></clipPath><clipPath id="7bb7decb54"><path d="M 47.9375 172.234375 L 86.925781 172.234375 L 86.925781 201.636719 L 47.9375 201.636719 Z M 47.9375 172.234375 " clip-rule="nonzero"/></clipPath><clipPath id="aacdab5157"><path d="M 47.972656 172.308594 L 86.839844 172.308594 L 86.839844 180.582031 L 56.246094 180.582031 L 56.246094 182.765625 L 86.839844 182.765625 L 86.839844 191.039062 L 56.246094 191.039062 C 56.246094 191.644531 56.460938 192.152344 56.886719 192.582031 L 57.832031 193.222656 L 86.839844 193.222656 L 86.839844 201.496094 L 56.246094 201.496094 L 47.972656 193.222656 Z M 47.972656 172.308594 " clip-rule="nonzero"/></clipPath><clipPath id="2575567199"><path d="M 286.554688 172.660156 L 325.542969 172.660156 L 325.542969 202 L 286.554688 202 Z M 286.554688 172.660156 " clip-rule="nonzero"/></clipPath><clipPath id="88bb83d4c2"><path d="M 286.632812 172.78125 L 325.496094 172.78125 L 325.496094 181.054688 L 294.902344 181.054688 L 294.902344 183.238281 L 325.496094 183.238281 L 325.496094 191.511719 L 294.902344 191.511719 C 294.902344 192.117188 295.117188 192.625 295.546875 193.054688 L 296.492188 193.695312 L 325.496094 193.695312 L 325.496094 201.96875 L 294.902344 201.96875 L 286.632812 193.695312 Z M 286.632812 172.78125 " clip-rule="nonzero"/></clipPath><clipPath id="b92a7b049f"><path d="M 132.519531 172.234375 L 182.375 172.234375 L 182.375 201.636719 L 132.519531 201.636719 Z M 132.519531 172.234375 " clip-rule="nonzero"/></clipPath><clipPath id="84b01abf35"><path d="M 132.570312 172.308594 L 140.84375 172.308594 L 140.84375 191.039062 C 140.84375 191.644531 141.058594 192.152344 141.488281 192.582031 L 142.433594 193.222656 L 151.078125 193.222656 C 151.683594 193.222656 152.191406 193.007812 152.617188 192.582031 L 153.261719 191.636719 L 153.261719 172.308594 L 161.535156 172.308594 L 161.535156 191.039062 C 161.535156 191.644531 161.746094 192.152344 162.175781 192.582031 L 163.121094 193.222656 L 171.753906 193.222656 C 172.363281 193.222656 172.867188 193.007812 173.296875 192.582031 L 173.9375 191.636719 L 173.9375 172.308594 L 182.210938 172.308594 L 182.210938 193.234375 L 173.9375 201.507812 L 161.523438 201.507812 L 157.390625 197.375 L 153.261719 201.507812 L 140.832031 201.507812 L 132.5625 193.234375 Z M 132.570312 172.308594 " clip-rule="nonzero"/></clipPath><clipPath id="3af7ea62e1"><path d="M 199 172.234375 L 237.980469 172.234375 L 237.980469 201.636719 L 199 201.636719 Z M 199 172.234375 " clip-rule="nonzero"/></clipPath><clipPath id="79ecc70bd0"><path d="M 207.320312 172.242188 L 237.859375 172.242188 L 237.859375 180.527344 L 209.515625 180.527344 C 208.910156 180.527344 208.402344 180.738281 207.976562 181.167969 L 207.332031 182.113281 L 207.332031 190.980469 C 207.332031 191.589844 207.546875 192.097656 207.976562 192.523438 L 208.921875 193.164062 L 237.871094 193.164062 L 237.871094 201.4375 L 207.320312 201.4375 L 199.050781 193.164062 L 199.050781 180.527344 Z M 207.320312 172.242188 " clip-rule="nonzero"/></clipPath><clipPath id="a8adf772ae"><path d="M 273.40625 172.78125 L 281.679688 172.78125 L 281.679688 183.238281 L 273.40625 183.238281 Z M 242.8125 172.78125 L 251.085938 172.78125 L 251.085938 183.238281 L 242.8125 183.238281 Z M 242.8125 183.238281 L 281.679688 183.238281 L 281.679688 191.511719 L 242.8125 191.511719 Z M 242.8125 191.511719 L 251.085938 191.511719 L 251.085938 201.96875 L 242.8125 201.96875 Z M 273.40625 191.511719 L 281.679688 191.511719 L 281.679688 201.980469 L 273.40625 201.980469 Z M 273.40625 191.511719 " clip-rule="nonzero"/></clipPath><clipPath id="84e83e1ccb"><path d="M 330.445312 172.660156 L 369.433594 172.660156 L 369.433594 202 L 330.445312 202 Z M 330.445312 172.660156 " clip-rule="nonzero"/></clipPath><clipPath id="0a4e1e7ac7"><path d="M 338.722656 181.054688 L 338.722656 183.238281 L 361.101562 183.238281 C 361.101562 182.640625 360.886719 182.125 360.457031 181.695312 L 359.511719 181.054688 Z M 330.449219 172.78125 L 361.101562 172.78125 L 369.375 181.054688 L 369.375 183.238281 L 365.230469 187.371094 L 369.375 191.5 L 369.375 201.957031 L 361.101562 201.957031 L 361.101562 193.707031 C 361.101562 193.097656 360.886719 192.59375 360.457031 192.164062 L 359.511719 191.523438 L 338.722656 191.523438 L 338.722656 201.980469 L 330.449219 201.980469 Z M 330.449219 172.78125 " clip-rule="nonzero"/></clipPath><clipPath id="3ba50d5593"><path d="M 90.121094 172.234375 L 129.324219 172.234375 L 129.324219 201.636719 L 90.121094 201.636719 Z M 90.121094 172.234375 " clip-rule="nonzero"/></clipPath><clipPath id="027a63f3ee"><path d="M 129.140625 172.308594 L 90.273438 172.308594 L 90.273438 180.582031 L 105.570312 180.582031 L 105.570312 201.496094 L 113.832031 201.496094 L 113.832031 180.582031 L 129.128906 180.582031 Z M 129.140625 172.308594 " clip-rule="nonzero"/></clipPath><clipPath id="845148375a"><path d="M 186.453125 172.253906 L 194.558594 172.253906 L 194.558594 201.4375 L 186.453125 201.4375 Z M 186.453125 172.253906 " clip-rule="nonzero"/></clipPath><clipPath id="6e26dfcc78"><path d="M 187.273438 167.121094 L 193.664062 167.121094 L 193.664062 171.382812 L 187.273438 171.382812 Z M 187.273438 167.121094 " clip-rule="nonzero"/></clipPath><clipPath id="037683cfc8"><path d="M 193.445312 169.507812 L 193.445312 170.585938 L 193.027344 171.183594 L 190.675781 169.574219 C 190.515625 169.460938 190.304688 169.460938 190.144531 169.574219 L 188.097656 170.96875 C 187.78125 171.183594 187.367188 170.957031 187.367188 170.585938 L 187.367188 169.507812 L 187.445312 169.203125 L 190.144531 167.355469 C 190.304688 167.242188 190.515625 167.242188 190.675781 167.355469 L 193.253906 169.113281 C 193.375 169.203125 193.453125 169.347656 193.453125 169.496094 " clip-rule="nonzero"/></clipPath><clipPath id="8d5323a9d7"><path d="M 192.386719 163.5 L 197 163.5 L 197 169.890625 L 192.386719 169.890625 Z M 192.386719 163.5 " clip-rule="nonzero"/></clipPath><clipPath id="fd1ae96dd7"><path d="M 195.515625 163.585938 L 196.539062 163.910156 L 196.976562 164.496094 L 194.726562 166.242188 C 194.582031 166.355469 194.511719 166.558594 194.570312 166.75 L 195.265625 169.125 C 195.367188 169.484375 195.03125 169.820312 194.671875 169.699219 L 193.644531 169.371094 L 193.386719 169.203125 L 192.464844 166.0625 C 192.40625 165.882812 192.476562 165.679688 192.621094 165.554688 L 195.085938 163.640625 C 195.210938 163.550781 195.367188 163.519531 195.515625 163.5625 " clip-rule="nonzero"/></clipPath><clipPath id="72403ecf0c"><path d="M 190.257812 158.601562 L 196.222656 158.601562 L 196.222656 163.714844 L 190.257812 163.714844 Z M 190.257812 158.601562 " clip-rule="nonzero"/></clipPath><clipPath id="e9bfff4b50"><path d="M 190.472656 159.769531 L 191.101562 158.890625 L 191.789062 158.65625 L 192.757812 161.335938 C 192.824219 161.515625 192.992188 161.636719 193.183594 161.636719 L 195.660156 161.707031 C 196.042969 161.71875 196.246094 162.144531 196.03125 162.449219 L 195.402344 163.328125 L 195.164062 163.527344 L 191.890625 163.4375 C 191.699219 163.429688 191.53125 163.316406 191.460938 163.125 L 190.40625 160.199219 C 190.347656 160.050781 190.371094 159.894531 190.460938 159.757812 " clip-rule="nonzero"/></clipPath><clipPath id="c79d9b0657"><path d="M 184.503906 158.601562 L 190.46875 158.601562 L 190.46875 163.714844 L 184.503906 163.714844 Z M 184.503906 158.601562 " clip-rule="nonzero"/></clipPath><clipPath id="7762f211f1"><path d="M 185.316406 163.347656 L 184.675781 162.480469 L 184.664062 161.75 L 187.511719 161.648438 C 187.703125 161.636719 187.871094 161.515625 187.941406 161.335938 L 188.761719 158.992188 C 188.886719 158.632812 189.359375 158.566406 189.582031 158.871094 L 190.222656 159.734375 L 190.335938 160.027344 L 189.246094 163.113281 C 189.175781 163.292969 189.007812 163.417969 188.816406 163.429688 L 185.699219 163.539062 C 185.542969 163.550781 185.394531 163.472656 185.304688 163.347656 " clip-rule="nonzero"/></clipPath><clipPath id="e4a937e68c"><path d="M 183.863281 163.5 L 188.550781 163.5 L 188.550781 169.890625 L 183.863281 169.890625 Z M 183.863281 163.5 " clip-rule="nonzero"/></clipPath><clipPath id="79c8e74f12"><path d="M 187.175781 169.359375 L 186.148438 169.699219 L 185.453125 169.484375 L 186.230469 166.738281 C 186.285156 166.558594 186.21875 166.355469 186.058594 166.230469 L 184.089844 164.722656 C 183.785156 164.496094 183.863281 164.023438 184.226562 163.902344 L 185.25 163.5625 L 185.566406 163.539062 L 188.164062 165.523438 C 188.320312 165.632812 188.378906 165.835938 188.332031 166.027344 L 187.476562 169.023438 C 187.433594 169.167969 187.320312 169.292969 187.175781 169.335938 " clip-rule="nonzero"/></clipPath></defs><g clip-path="url(#03d9fe4a64)"><g clip-path="url(#7e87051f34)"><path fill="#845dce" d="M 0 153.0625 L 374.972656 153.0625 L 374.972656 207.601562 L 0 207.601562 Z M 0 153.0625 " fill-opacity="1" fill-rule="nonzero"/></g></g><g clip-path="url(#7bb7decb54)"><g clip-path="url(#aacdab5157)"><path fill="#845dce" d="M 0 153.0625 L 374.972656 153.0625 L 374.972656 207.601562 L 0 207.601562 Z M 0 153.0625 " fill-opacity="1" fill-rule="nonzero"/></g></g><g clip-path="url(#2575567199)"><g clip-path="url(#88bb83d4c2)"><path fill="#845dce" d="M 0 153.0625 L 374.972656 153.0625 L 374.972656 207.601562 L 0 207.601562 Z M 0 153.0625 " fill-opacity="1" fill-rule="nonzero"/></g></g><g clip-path="url(#b92a7b049f)"><g clip-path="url(#84b01abf35)"><path fill="#845dce" d="M 0 153.0625 L 374.972656 153.0625 L 374.972656 207.601562 L 0 207.601562 Z M 0 153.0625 " fill-opacity="1" fill-rule="nonzero"/></g></g><g clip-path="url(#3af7ea62e1)"><g clip-path="url(#79ecc70bd0)"><path fill="#845dce" d="M 0 153.0625 L 374.972656 153.0625 L 374.972656 207.601562 L 0 207.601562 Z M 0 153.0625 " fill-opacity="1" fill-rule="nonzero"/></g></g><g clip-path="url(#a8adf772ae)"><path fill="#845dce" d="M 0 153.0625 L 374.972656 153.0625 L 374.972656 207.601562 L 0 207.601562 Z M 0 153.0625 " fill-opacity="1" fill-rule="nonzero"/></g><g clip-path="url(#84e83e1ccb)"><g clip-path="url(#0a4e1e7ac7)"><path fill="#845dce" d="M 0 153.0625 L 374.972656 153.0625 L 374.972656 207.601562 L 0 207.601562 Z M 0 153.0625 " fill-opacity="1" fill-rule="nonzero"/></g></g><g clip-path="url(#3ba50d5593)"><g clip-path="url(#027a63f3ee)"><path fill="#845dce" d="M 0 153.0625 L 374.972656 153.0625 L 374.972656 207.601562 L 0 207.601562 Z M 0 153.0625 " fill-opacity="1" fill-rule="nonzero"/></g></g><g clip-path="url(#845148375a)"><path fill="#845dce" d="M 0 153.0625 L 374.972656 153.0625 L 374.972656 207.601562 L 0 207.601562 Z M 0 153.0625 " fill-opacity="1" fill-rule="nonzero"/></g><g clip-path="url(#6e26dfcc78)"><g clip-path="url(#037683cfc8)"><path fill="#845dce" d="M 0 153.0625 L 374.972656 153.0625 L 374.972656 207.601562 L 0 207.601562 Z M 0 153.0625 " fill-opacity="1" fill-rule="nonzero"/></g></g><g clip-path="url(#8d5323a9d7)"><g clip-path="url(#fd1ae96dd7)"><path fill="#845dce" d="M 0 153.0625 L 374.972656 153.0625 L 374.972656 207.601562 L 0 207.601562 Z M 0 153.0625 " fill-opacity="1" fill-rule="nonzero"/></g></g><g clip-path="url(#72403ecf0c)"><g clip-path="url(#e9bfff4b50)"><path fill="#845dce" d="M 0 153.0625 L 374.972656 153.0625 L 374.972656 207.601562 L 0 207.601562 Z M 0 153.0625 " fill-opacity="1" fill-rule="nonzero"/></g></g><g clip-path="url(#c79d9b0657)"><g clip-path="url(#7762f211f1)"><path fill="#845dce" d="M 0 153.0625 L 374.972656 153.0625 L 374.972656 207.601562 L 0 207.601562 Z M 0 153.0625 " fill-opacity="1" fill-rule="nonzero"/></g></g><g clip-path="url(#e4a937e68c)"><g clip-path="url(#79c8e74f12)"><path fill="#845dce" d="M 0 153.0625 L 374.972656 153.0625 L 374.972656 207.601562 L 0 207.601562 Z M 0 153.0625 " fill-opacity="1" fill-rule="nonzero"/></g></g></svg>
